<svg xmlns="http://www.w3.org/2000/svg" width="1200" height="800" viewBox="0 0 1200 800">
  <defs>
    <linearGradient id="ac2" x1="0" y1="0" x2="1" y2="0">
      <stop offset="0%" stop-color="#6920c8"/>
      <stop offset="100%" stop-color="#f08020"/>
    </linearGradient>
  </defs>
  <rect width="1200" height="800" fill="#0c0a14"/>
  <rect x="0" y="0" width="1200" height="64" fill="rgba(10,8,20,0.95)"/>
  <text x="48" y="41" font-family="Georgia,serif" font-size="26" font-style="italic" fill="white" font-weight="700">Zero Admin</text>
  <rect x="0" y="63" width="1200" height="2" fill="url(#ac2)"/>
  <rect x="0" y="64" width="240" height="736" fill="rgba(18,14,34,0.98)" stroke="rgba(139,56,220,0.2)" stroke-width="1"/>
  <text x="28" y="112" font-family="Georgia,serif" font-size="20" font-style="italic" fill="white" font-weight="700">Zero</text>
  <rect x="12" y="132" width="216" height="36" rx="8" fill="rgba(139,56,220,0.25)"/>
  <text x="28" y="155" font-family="Arial" font-size="13" fill="#b348c8" font-weight="600">Overview</text>
  <text x="28" y="196" font-family="Arial" font-size="13" fill="#a89ab8">Listings</text>
  <text x="28" y="232" font-family="Arial" font-size="13" fill="#a89ab8">Reservations</text>
  <text x="28" y="268" font-family="Arial" font-size="13" fill="#a89ab8">Users</text>
  <text x="272" y="112" font-family="Georgia,serif" font-size="26" font-style="italic" fill="white" font-weight="700">Dashboard Overview</text>
  <rect x="272" y="132" width="192" height="96" rx="14" fill="rgba(26,20,50,0.9)" stroke="rgba(139,56,220,0.25)" stroke-width="1"/>
  <text x="290" y="160" font-family="Arial" font-size="10" fill="#a89ab8">CONFIRMED BOOKINGS</text>
  <text x="290" y="204" font-family="Georgia,serif" font-size="34" font-style="italic" fill="white" font-weight="700">5</text>
  <rect x="480" y="132" width="192" height="96" rx="14" fill="rgba(26,20,50,0.9)" stroke="rgba(139,56,220,0.25)" stroke-width="1"/>
  <text x="498" y="160" font-family="Arial" font-size="10" fill="#a89ab8">TOTAL REVENUE</text>
  <text x="498" y="204" font-family="Georgia,serif" font-size="28" font-style="italic" fill="white" font-weight="700">R48,010</text>
  <rect x="688" y="132" width="192" height="96" rx="14" fill="rgba(26,20,50,0.9)" stroke="rgba(139,56,220,0.25)" stroke-width="1"/>
  <text x="706" y="160" font-family="Arial" font-size="10" fill="#a89ab8">ACTIVE LISTINGS</text>
  <text x="706" y="204" font-family="Georgia,serif" font-size="34" font-style="italic" fill="white" font-weight="700">18</text>
  <rect x="896" y="132" width="268" height="96" rx="14" fill="rgba(26,20,50,0.9)" stroke="rgba(139,56,220,0.25)" stroke-width="1"/>
  <text x="914" y="160" font-family="Arial" font-size="10" fill="#a89ab8">AVG. RATING</text>
  <text x="914" y="204" font-family="Georgia,serif" font-size="34" font-style="italic" fill="#d4af37" font-weight="700">4.88</text>
  <rect x="272" y="252" width="892" height="380" rx="14" fill="rgba(26,20,50,0.9)" stroke="rgba(139,56,220,0.2)" stroke-width="1"/>
  <rect x="272" y="252" width="892" height="44" rx="14" fill="rgba(139,56,220,0.12)"/>
  <text x="292" y="280" font-family="Arial" font-size="11" fill="#a89ab8" font-weight="700">ID</text>
  <text x="352" y="280" font-family="Arial" font-size="11" fill="#a89ab8" font-weight="700">GUEST</text>
  <text x="520" y="280" font-family="Arial" font-size="11" fill="#a89ab8" font-weight="700">LISTING</text>
  <text x="760" y="280" font-family="Arial" font-size="11" fill="#a89ab8" font-weight="700">TOTAL</text>
  <text x="880" y="280" font-family="Arial" font-size="11" fill="#a89ab8" font-weight="700">STATUS</text>
  <text x="292" y="322" font-family="monospace" font-size="11" fill="#a89ab8">BK001</text>
  <text x="352" y="322" font-family="Arial" font-size="13" fill="white">Lerato K.</text>
  <text x="520" y="322" font-family="Arial" font-size="13" fill="#8fd4f8">The Canopy Nest</text>
  <text x="760" y="322" font-family="Arial" font-size="13" fill="#d4af37" font-weight="600">R8,740</text>
  <rect x="872" y="308" width="80" height="22" rx="11" fill="rgba(39,174,96,0.2)"/>
  <text x="912" y="323" font-family="Arial" font-size="10" fill="#27ae60" text-anchor="middle">confirmed</text>
  <text x="292" y="360" font-family="monospace" font-size="11" fill="#a89ab8">BK002</text>
  <text x="352" y="360" font-family="Arial" font-size="13" fill="white">Marco V.</text>
  <text x="520" y="360" font-family="Arial" font-size="13" fill="#8fd4f8">Sky Loft Hideaway</text>
  <text x="760" y="360" font-family="Arial" font-size="13" fill="#d4af37" font-weight="600">R5,540</text>
  <rect x="872" y="346" width="80" height="22" rx="11" fill="rgba(39,174,96,0.2)"/>
  <text x="912" y="361" font-family="Arial" font-size="10" fill="#27ae60" text-anchor="middle">confirmed</text>
  <text x="292" y="398" font-family="monospace" font-size="11" fill="#a89ab8">BK003</text>
  <text x="352" y="398" font-family="Arial" font-size="13" fill="white">Amos T.</text>
  <text x="520" y="398" font-family="Arial" font-size="13" fill="#8fd4f8">Sunset Shack</text>
  <text x="760" y="398" font-family="Arial" font-size="13" fill="#d4af37" font-weight="600">R6,200</text>
  <rect x="872" y="384" width="80" height="22" rx="11" fill="rgba(230,126,34,0.2)"/>
  <text x="912" y="399" font-family="Arial" font-size="10" fill="#e67e22" text-anchor="middle">pending</text>
  <text x="600" y="776" font-family="Arial" font-size="12" fill="rgba(160,140,180,0.6)" text-anchor="middle">Zero Admin — CRUD listings · Reservations management · JWT-protected</text>
</svg>
